<?xml version="1.0" encoding="iso-8859-1"?>
<!-- Uploaded to: SVG Repo, www.svgrepo.com, Generator: SVG Repo Mixer Tools -->
<svg fill="#000000" height="800px" width="800px" version="1.1" id="Layer_1" xmlns="http://www.w3.org/2000/svg" xmlns:xlink="http://www.w3.org/1999/xlink" 
	 viewBox="0 0 512 512" xml:space="preserve">
<g>
	<g>
		<path d="M298.351,337.541l42.983,22.756c0,41.825-34.027,75.852-75.852,75.852s-75.852-34.027-75.852-75.852V99.246
			c11.629-10.423,18.963-25.547,18.963-42.357C208.593,25.52,183.072,0,151.704,0c-31.369,0-56.889,25.52-56.889,56.889
			c0,16.809,7.334,31.932,18.963,42.357v261.05c0,83.783,67.92,151.704,151.704,151.704s151.704-67.92,151.704-151.704V226.291
			L298.351,337.541z M151.704,75.852c-10.456,0-18.963-8.507-18.963-18.963s8.507-18.963,18.963-18.963s18.963,8.507,18.963,18.963
			S162.16,75.852,151.704,75.852z"/>
	</g>
</g>
</svg>