<?xml version="1.0" standalone="no"?>
<!DOCTYPE svg PUBLIC "-//W3C//DTD SVG 20010904//EN"
 "http://www.w3.org/TR/2001/REC-SVG-20010904/DTD/svg10.dtd">
<svg version="1.0" xmlns="http://www.w3.org/2000/svg"
 width="688.000000pt" height="588.000000pt" viewBox="0 0 688.000000 588.000000"
 preserveAspectRatio="xMidYMid meet">

<g transform="translate(0.000000,588.000000) scale(0.100000,-0.100000)"
fill="#000000" stroke="none">
<path d="M2655 5114 c-77 -40 -109 -99 -103 -194 4 -81 33 -126 104 -160 38
-19 57 -22 115 -18 l69 5 95 -99 c52 -54 95 -103 95 -109 0 -6 -11 -25 -25
-43 -137 -179 -111 -452 59 -622 273 -271 743 -142 841 231 37 142 -1 308 -93
407 l-25 28 99 102 c79 82 104 103 124 101 92 -9 127 -6 165 14 81 42 119 108
113 194 -9 126 -117 200 -253 175 -64 -12 -126 -82 -143 -160 -5 -26 -38 -67
-138 -168 l-131 -133 -49 17 c-71 25 -231 24 -304 -2 l-55 -19 -122 121 c-126
126 -133 136 -152 205 -14 52 -52 98 -102 123 -47 25 -141 27 -184 4z"/>
<path d="M345 4958 c5 -22 198 -1182 251 -1507 13 -85 25 -156 27 -157 9 -8
435 -224 442 -224 10 0 5 38 -75 525 -122 743 -140 858 -137 862 2 2 60 -27
128 -65 68 -38 203 -111 299 -162 96 -51 391 -210 655 -353 670 -363 808 -437
823 -437 14 0 16 132 6 340 l-7 125 -81 44 c-95 51 -325 177 -631 346 -121 67
-319 175 -440 240 -282 151 -522 282 -561 306 -25 15 -345 79 -672 134 -30 6
-32 4 -27 -17z"/>
<path d="M6405 4968 c-27 -5 -166 -31 -308 -58 -142 -27 -270 -55 -285 -63
-40 -20 -421 -230 -712 -392 -219 -122 -434 -240 -700 -383 -36 -19 -125 -68
-198 -109 l-133 -75 1 -224 c1 -180 4 -224 15 -224 7 0 44 17 82 38 86 49 480
261 698 377 61 32 124 66 140 75 86 51 776 425 864 470 97 48 103 50 98 28 -4
-13 -16 -81 -28 -153 -11 -71 -33 -204 -49 -295 -16 -91 -31 -185 -35 -210 -3
-25 -19 -119 -35 -210 -30 -166 -70 -439 -70 -472 0 -15 43 4 219 92 195 97
220 112 225 137 4 15 17 96 31 178 13 83 45 272 70 420 25 149 63 374 85 500
21 127 50 295 64 375 27 151 31 191 19 189 -5 -1 -30 -6 -58 -11z"/>
<path d="M1240 3873 c0 -5 11 -71 25 -148 14 -77 44 -248 66 -380 22 -131 42
-241 44 -244 3 -2 38 12 77 31 40 19 198 95 351 168 152 74 274 137 270 141
-5 4 -129 71 -278 149 -148 78 -332 176 -407 216 -143 77 -148 79 -148 67z"/>
<path d="M5240 3697 c-179 -95 -363 -192 -408 -218 l-83 -45 198 -97 c274
-133 496 -238 498 -235 1 2 26 145 54 318 29 173 58 345 65 383 7 37 10 67 7
67 -3 -1 -152 -78 -331 -173z"/>
<path d="M3082 3224 l3 -316 165 -84 165 -84 173 86 172 86 0 315 0 314 -92
-51 c-51 -28 -129 -69 -173 -91 l-80 -40 -115 61 c-63 34 -139 75 -168 91
l-52 29 2 -316z"/>
<path d="M2675 3358 c-80 -41 -912 -433 -1290 -608 -110 -51 -249 -117 -309
-147 l-109 -55 6 -96 c4 -53 7 -129 7 -168 l0 -72 68 -16 c100 -26 583 -164
852 -245 129 -39 238 -71 243 -71 4 0 7 105 7 233 l0 232 -118 62 c-64 34
-125 68 -135 75 -16 12 9 27 230 137 136 69 336 167 443 218 l195 93 3 227 c1
125 -1 230 -5 234 -5 4 -44 -11 -88 -33z"/>
<path d="M4072 3159 l3 -232 434 -211 c239 -116 436 -216 438 -221 2 -6 -58
-41 -132 -78 l-135 -67 0 -241 c0 -189 3 -240 13 -236 32 12 435 132 937 279
l215 63 0 170 0 170 -285 135 c-574 271 -712 337 -1062 501 -196 92 -367 174
-380 183 -48 34 -49 32 -46 -215z"/>
<path d="M2704 2524 c-93 -47 -186 -95 -206 -107 l-38 -21 0 -168 0 -168 960
0 960 0 0 168 0 168 -217 107 c-120 59 -222 107 -228 107 -5 0 -125 -59 -265
-131 l-255 -130 -260 131 c-143 71 -265 130 -271 130 -6 0 -87 -39 -180 -86z"/>
<path d="M2460 1699 c0 -6 23 -90 51 -187 28 -98 55 -192 61 -209 l9 -33 838
0 838 0 41 148 c39 136 72 267 72 285 0 4 -430 7 -955 7 -686 0 -955 -3 -955
-11z"/>
<path d="M2832 901 c20 -29 228 -251 419 -449 l166 -172 159 162 c146 149 298
308 414 431 l44 47 -607 0 c-600 0 -608 0 -595 -19z"/>
</g>
</svg>
