<?xml version="1.0" encoding="utf-8"?>
<!-- Uploaded to: SVG Repo, www.svgrepo.com, Generator: SVG Repo Mixer Tools -->
<svg width="800px" height="800px" viewBox="0 0 64 64" xmlns="http://www.w3.org/2000/svg" stroke-width="3" stroke="#000000" fill="none">
    <path d="M14,39.87,24.59,50.51s33-14,31.23-42.29C55.82,8.22,29.64,4.28,14,39.87Z" fill="white"/>
    <path d="M44.69,9.09a12.3,12.3,0,0,0,3.48,6.73,12.31,12.31,0,0,0,7,3.52" fill="white"/>
    <circle cx="39.46" cy="24.56" r="6.2" fill="white"/>
    <path d="M14.89,37.82l-5.3.68a.27.27,0,0,1-.28-.37l3.93-9a2.65,2.65,0,0,1,1.88-1.53l6.59-1.38" fill="white"/>
    <path d="M26.55,49.4l-.69,5.3a.27.27,0,0,0,.37.28l9-3.92a2.69,2.69,0,0,0,1.53-1.89l1.38-6.59" fill="white"/>
    <path d="M22.21,48.13c-2.37,7.41-14.1,7.78-14.1,7.78S8,44.51,15.76,41.67" fill="white"/>
</svg>
